 http://img14.imageshack.us/img14/7824/wby3tjn8.png 
http://img824.imageshack.us/img824/4967/2vuoyjxv.png 
http://img194.imageshack.us/img194/5453/7vqmhgaa.png 
http://img31.imageshack.us/img31/1861/df22peo5.png 
http://img35.imageshack.us/img35/6229/udz74q8t.png


Lindsey Haun..................Tara
Jack Huston...................Jake
Max Kasch.....................Troy
Maya Hazen....................Lisa
Alice Greczyn.................Holly
Robert Hoffman................Bluto
Don Wycherley.................Ernie
Sean McGinley.................Bernie
Toby Sedgwick.................Black Brother
Andre Pollack.................The Dog
Jack Gleeson..................Lonely Twin
Mike Carbery..................Paramedic
Anna Tikhonova................Mysterious Woman 1
Goranna McDonald..............Mysterious WOman 2
Berry Murphy..................Lonely Twin's Brother
 
http://www.imdb.com/title/tt0492486/

Shrooms is a 2007  horror film about a group of American  students and their Irish guide who are stalked by a serial killer while out in the woods looking for Psychedelic mushrooms


Format : MPEG-4
Format profile : Base Media / Version 2
Codec ID : mp42
File size : 630 MiB
Duration : 1h 24mn
Overall bit rate : 1 044 Kbps

ID : 1
Format : AVC
Format/Info : Advanced Video Codec
Format profile : Main@L3.0
Format settings, CABAC : Yes
Format settings, ReFrames : 2 frames
Codec ID : avc1
Codec ID/Info : Advanced Video Coding
Duration : 1h 24mn
Bit rate mode : Variable
Bit rate : 879 Kbps
Width : 720 pixels
Height : 370 pixels
Display aspect ratio : 2.35:1
Frame rate mode : Variable
Frame rate : 23.976 fps
Minimum frame rate : 11.989 fps
Maximum frame rate : 29.970 fps
Resolution : 8 bits
Colorimetry : 4:2:0
Scan type : Progressive
Bits/(Pixel*Frame) : 0.138
Stream size : 530 MiB (84%)
Writing library : x264 core 79

Audio:

ID : 2
Format : AAC
Format/Info : Advanced Audio Codec
Format version : Version 4
Format profile : LC
Format settings, SBR : No
Codec ID : 40
Duration : 1h 24mn
Bit rate mode : Variable
Bit rate : 160 Kbps
Maximum bit rate : 240 Kbps
Channel(s) : 2 channels
Channel positions : Front: L R
Sampling rate : 48.0 KHz
Stream size : 96.5 MiB (15%)
Language : English

encoded by bigperm 
http://img441.imageshack.us/img441/5863/547pdk.gif